<svg width="37" height="76" viewBox="0 0 37 76" fill="none" xmlns="http://www.w3.org/2000/svg">
<g opacity="0.998">
<path opacity="0.998" d="M18.1021 24.518C17.4846 24.518 16.8925 24.2728 16.4559 23.8362C16.0193 23.3996 15.774 22.8075 15.774 22.19V14.462C15.774 13.8446 16.0193 13.2525 16.4559 12.8159C16.8925 12.3793 17.4846 12.134 18.1021 12.134C18.7195 12.134 19.3116 12.3793 19.7482 12.8159C20.1848 13.2525 20.43 13.8446 20.43 14.462V22.19C20.4302 22.4958 20.37 22.7985 20.2531 23.0811C20.1361 23.3636 19.9647 23.6203 19.7485 23.8365C19.5323 24.0527 19.2756 24.2241 18.9931 24.3411C18.7106 24.458 18.4078 24.5182 18.1021 24.518V24.518Z" stroke="white" stroke-width="2" stroke-miterlimit="10"/>
<path opacity="0.998" d="M18.78 58.446H17.426C13.0696 58.446 8.89154 56.7154 5.81107 53.6349C2.73059 50.5545 1 46.3764 1 42.02V17.426C1 13.0695 2.73059 8.89154 5.81107 5.81107C8.89154 2.73059 13.0696 1 17.426 1H18.78C23.1364 1 27.3145 2.73059 30.395 5.81107C33.4754 8.89154 35.206 13.0695 35.206 17.426V42.026C35.2047 46.3815 33.4735 50.5581 30.3931 53.6373C27.3128 56.7166 23.1355 58.4463 18.78 58.446V58.446Z" stroke="white" stroke-width="2" stroke-miterlimit="10"/>
<path opacity="0.998" d="M24.1001 68.604L18.106 74.604L12.1121 68.604" stroke="white" stroke-width="2" stroke-miterlimit="10" stroke-linejoin="round"/>
<path opacity="0.998" d="M24.1001 68.604L18.106 74.604L12.1121 68.604" stroke="white" stroke-width="2" stroke-miterlimit="10" stroke-linejoin="round"/>
<path opacity="0.998" d="M24.1001 68.604L18.106 74.604L12.1121 68.604" stroke="white" stroke-width="2" stroke-miterlimit="10" stroke-linejoin="round"/>
</g>
</svg>
